HIERARCHY
ROOT RootJoint
{
    OFFSET   0.000000   0.000000   0.000000
    CHANNELS 6 Xposition Yposition Zposition Xrotation Yrotation Zrotation
    JOINT lHip
    {
        OFFSET   0.100000  -0.051395   0.000000
        CHANNELS 3 Xrotation Yrotation Zrotation
        JOINT lKnee
        {
            OFFSET   0.000000  -0.410000   0.000000
            CHANNELS 3 Xrotation Yrotation Zrotation
            JOINT lAnkle
            {
                OFFSET   0.000000  -0.390000   0.000000
                CHANNELS 3 Xrotation Yrotation Zrotation
                JOINT lToeJoint
                {
                    OFFSET   0.000000  -0.050000   0.130000
                    CHANNELS 3 Xrotation Yrotation Zrotation
                    End Site
                    {
                        OFFSET   0.010000   0.002000   0.060000
                    }
                }
            }
        }
    }
    JOINT rHip
    {
        OFFSET  -0.100000  -0.051395   0.000000
        CHANNELS 3 Xrotation Yrotation Zrotation
        JOINT rKnee
        {
            OFFSET   0.000000  -0.410000   0.000000
            CHANNELS 3 Xrotation Yrotation Zrotation
            JOINT rAnkle
            {
                OFFSET   0.000000  -0.390000   0.000000
                CHANNELS 3 Xrotation Yrotation Zrotation
                JOINT rToeJoint
                {
                    OFFSET   0.000000  -0.050000   0.130000
                    CHANNELS 3 Xrotation Yrotation Zrotation
                    End Site
                    {
                        OFFSET  -0.010000   0.002000   0.060000
                    }
                }
            }
        }
    }
    JOINT pelvis_lowerback
    {
        OFFSET   0.000000   0.093605   0.000000
        CHANNELS 3 Xrotation Yrotation Zrotation
        JOINT lowerback_torso
        {
            OFFSET   0.000000   0.100000   0.000000
            CHANNELS 3 Xrotation Yrotation Zrotation
            JOINT torso_head
            {
                OFFSET   0.000000   0.282350   0.000000
                CHANNELS 3 Xrotation Yrotation Zrotation
                End Site
                {
                    OFFSET   0.000000   0.192650   0.000000
                }
            }
            JOINT lTorso_Clavicle
            {
                OFFSET   0.001000   0.157500   0.000000
                CHANNELS 3 Xrotation Yrotation Zrotation
                JOINT lShoulder
                {
                    OFFSET   0.117647   0.000000   0.000000
                    CHANNELS 3 Xrotation Yrotation Zrotation
                    JOINT lElbow
                    {
                        OFFSET   0.245000   0.000000   0.000000
                        CHANNELS 3 Xrotation Yrotation Zrotation
                        JOINT lWrist
                        {
                            OFFSET   0.240000   0.000000   0.000000
                            CHANNELS 3 Xrotation Yrotation Zrotation
                            End Site
                            {
                                OFFSET   0.116353  -0.002500   0.000000
                            }
                        }
                    }
                }
            }
            JOINT rTorso_Clavicle
            {
                OFFSET  -0.001000   0.157500   0.000000
                CHANNELS 3 Xrotation Yrotation Zrotation
                JOINT rShoulder
                {
                    OFFSET  -0.117647   0.000000   0.000000
                    CHANNELS 3 Xrotation Yrotation Zrotation
                    JOINT rElbow
                    {
                        OFFSET  -0.245000   0.000000   0.000000
                        CHANNELS 3 Xrotation Yrotation Zrotation
                        JOINT rWrist
                        {
                            OFFSET  -0.240000   0.000000   0.000000
                            CHANNELS 3 Xrotation Yrotation Zrotation
                            End Site
                            {
                                OFFSET  -0.116353  -0.002500   0.000000
                            }
                        }
                    }
                }
            }
        }
    }
}
MOTION
Frames: 10
Frame Time:   0.016667
  1.421577   0.910676   1.676985  18.676684 -87.183548  17.577238   0.392496  18.467832  -1.034179  -2.265350   7.374289   3.607800   0.330146   5.664578  -1.719463  -0.000001  -0.000001   0.000000  -2.372754   0.061624   1.880488   0.183072   0.639491  -0.254946   1.591875   0.477883  -0.974073   0.000002   0.000003   0.000001   0.277838  -0.619362   0.378352   1.139179  -2.507328   1.440882   7.691157  -4.717332   0.088343   0.673158  -0.127593 -14.609932  15.787101 -39.840891 -45.561863  -2.067581 -16.991780   1.088512   4.228538   2.817942  -5.284265  -1.682673  -1.289418  17.179295  14.706811  26.097108  54.072163  -0.554479  19.209292  -3.899665   7.081085  -0.010084   0.612065
  1.421699   0.910719   1.677036  18.973647 -87.190296  17.863999   0.380153  18.472016  -1.034651  -2.282339   7.376825   3.616740   0.340840   5.667703  -1.715909  -0.000002  -0.000003   0.000000  -2.372095   0.061356   1.877543   0.136248   0.645438  -0.236879   1.627332   0.482365  -0.977728   0.000001   0.000003   0.000001   0.278080  -0.618523   0.373378   1.139756  -2.504013   1.421004   7.587299  -4.935305   0.189260   0.672200  -0.150304 -14.612919  15.775229 -39.823575 -45.573571  -2.068312 -17.005990   1.070410   4.221857   2.821741  -5.305773  -1.682445  -1.278001  17.172211  14.725684  26.074369  54.041413  -0.552868  19.177422  -3.903727   7.041021  -0.020983   0.667521
  1.421827   0.910734   1.677095  18.931865 -87.186756  17.820244   0.372436  18.499328  -1.039886  -2.283427   7.357419   3.623743   0.347178   5.655251  -1.712012  -0.000002  -0.000005  -0.000001  -2.374987   0.028459   1.870646   0.127543   0.662098  -0.230309   1.641892   0.493290  -0.975120  -0.000001   0.000003   0.000001   0.281972  -0.618420   0.367325   1.154869  -2.505183   1.396657   7.519630  -5.177718   0.298249   0.670417  -0.185208 -14.610267  15.771140 -39.813994 -45.589859  -2.075138 -17.059055   1.069657   4.203619   2.821972  -5.309355  -1.682620  -1.260938  17.167531  14.740023  26.049101  54.003607  -0.550989  19.142395  -3.907327   6.986299  -0.019048   0.703357
  1.421957   0.910746   1.677151  18.866211 -87.182404  17.753234   0.364276  18.528370  -1.045056  -2.282246   7.336402   3.630530   0.352860   5.641613  -1.708228  -0.000002  -0.000007  -0.000001  -2.379093  -0.007738   1.864307   0.123193   0.680119  -0.226032   1.654205   0.504878  -0.971551  -0.000002   0.000003   0.000001   0.286094  -0.618570   0.361252   1.170901  -2.507054   1.372268   7.456758  -5.423656   0.405170   0.668580  -0.220715 -14.606923  15.768839 -39.807078 -45.605673  -2.082157 -17.113702   1.070772   4.187212   2.822266  -5.312824  -1.682833  -1.242287  17.162647  14.754509  26.024329  53.965638  -0.549165  19.108308  -3.910753   6.933771  -0.016581   0.734338
  1.422097   0.910738   1.677195  18.669422 -87.173569  17.558483   0.353669  18.566927  -1.049879  -2.268596   7.306523   3.636135   0.354926   5.621454  -1.705073  -0.000001  -0.000004   0.000000  -2.389855  -0.062089   1.861032   0.142802   0.705627  -0.234383   1.654162   0.520108  -0.962681  -0.000001   0.000003   0.000001   0.291475  -0.620107   0.355076   1.191986  -2.512750   1.347644   7.418301  -5.688364   0.501881   0.666454  -0.259533 -14.599759  15.776346 -39.814828 -45.618896  -2.090212 -17.177050   1.082194   4.180882   2.822904  -5.315675  -1.683263  -1.214906  17.156639  14.769906  26.002326  53.926709  -0.547634  19.079392  -3.913232   6.893317  -0.011020   0.738610
  1.422241   0.910726   1.677234  18.447423 -87.163578  17.339305   0.342082  18.606161  -1.054559  -2.251868   7.275484   3.641551   0.356499   5.600386  -1.702015   0.000000  -0.000000   0.000000  -2.402483  -0.120293   1.858895   0.168031   0.732696  -0.246338   1.651245   0.535954  -0.952388   0.000000   0.000003   0.000001   0.297009  -0.621925   0.348945   1.213687  -2.519269   1.323229   7.389254  -5.961066   0.594292   0.664287  -0.298388 -14.591652  15.787007 -39.827706 -45.630407  -2.098397 -17.241632   1.096262   4.175820   2.823068  -5.318659  -1.683676  -1.185881  17.149832  14.785048  25.981745  53.888491  -0.546253  19.053068  -3.915336   6.860077  -0.004990   0.735843
  1.422394   0.910707   1.677261  18.212172 -87.151870  17.107791   0.327547  18.639603  -1.058832  -2.230688   7.246927   3.647074   0.358967   5.580837  -1.698858   0.000000  -0.000002  -0.000000  -2.418702  -0.181534   1.860005   0.200185   0.760877  -0.265437   1.644884   0.551555  -0.939577   0.000000   0.000003   0.000001   0.302124  -0.623897   0.343167   1.233744  -2.526459   1.300192   7.386036  -6.258767   0.673686   0.662172  -0.334140 -14.582170  15.805211 -39.854120 -45.635088  -2.106303 -17.304289   1.114584   4.167659   2.820276  -5.322996  -1.683798  -1.156547  17.139746  14.797943  25.966256  53.855102  -0.545403  19.035831  -3.916336   6.854442   0.000503   0.721044
  1.422550   0.910688   1.677286  17.976180 -87.139809  16.875703   0.312476  18.671993  -1.063024  -2.208699   7.218823   3.652625   0.361599   5.561565  -1.695682   0.000000  -0.000004  -0.000001  -2.435573  -0.243329   1.861691   0.233608   0.789249  -0.285849   1.637894   0.567109  -0.926305   0.000000   0.000002   0.000001   0.307162  -0.625898   0.337454   1.253499  -2.533776   1.277408   7.387847  -6.561008   0.750771   0.660071  -0.369327 -14.572438  15.824793 -39.882996 -45.638518  -2.114142 -17.366598   1.133679   4.158933   2.816946  -5.327579  -1.683861  -1.127156  17.129064  14.810423  25.951688  53.822596  -0.544649  19.020245  -3.917134   6.853827   0.005899   0.704057
  1.422702   0.910676   1.677327  17.744017 -87.130850  16.647647   0.302333  18.688600  -1.070140  -2.192230   7.201662   3.658853   0.364026   5.549580  -1.690760  -0.000001  -0.000006  -0.000001  -2.445066  -0.288164   1.861792   0.253396   0.809746  -0.304240   1.636727   0.577196  -0.913562   0.000001   0.000003   0.000001   0.310845  -0.627525   0.332300   1.267842  -2.539699   1.256827   7.427087  -6.887726   0.826668   0.658810  -0.393699 -14.569568  15.840429 -39.905115 -45.637731  -2.122132 -17.425930   1.152133   4.135479   2.804728  -5.328259  -1.682897  -1.110055  17.112381  14.810817  25.943848  53.802124  -0.544662  19.018036  -3.916680   6.879974   0.011431   0.688776
  1.422853   0.910665   1.677371  17.513331 -87.122849  16.421044   0.293322  18.704601  -1.077533  -2.176654   7.185439   3.664753   0.366283   5.538146  -1.685386  -0.000002  -0.000007  -0.000001  -2.452995  -0.329436   1.861223   0.270603   0.828698  -0.321512   1.636660   0.586348  -0.901165   0.000001   0.000003   0.000001   0.314345  -0.629068   0.327224   1.281457  -2.545303   1.236561   7.469832  -7.214575   0.904198   0.657634  -0.417143 -14.567692  15.854614 -39.924736 -45.637268  -2.130052 -17.484191   1.169940   4.110929   2.792563  -5.329397  -1.681867  -1.094577  17.095654  14.809652  25.936567  53.782532  -0.544788  19.017843  -3.916082   6.906872   0.016424   0.672432
